<svg width="16" height="16" viewBox="0 0 16 16" fill="none" xmlns="http://www.w3.org/2000/svg">
<g clip-path="url(#clip0_39_1695)">
<path d="M15.4966 13.0659L13.304 10.8733L10.8733 13.304L13.0659 15.4966C13.7371 16.1678 14.8254 16.1678 15.4966 15.4966C16.1678 14.8253 16.1678 13.7371 15.4966 13.0659Z" fill="#959595"/>
<path d="M6.89448 13.5518C7.01442 13.5518 7.13442 13.506 7.22592 13.4145C7.40898 13.2314 7.40898 12.9346 7.22592 12.7516L6.67517 12.2008L15.828 4.71756C15.9369 4.62853 16.0001 4.49531 16.0001 4.35466V0.46875C16.0001 0.209875 15.7902 0 15.5313 0H11.6453C11.5047 0 11.3715 0.0631562 11.2824 0.172031L3.7992 9.32484L3.24845 8.77409C3.06541 8.59106 2.7686 8.59103 2.58554 8.77409C2.40248 8.95716 2.40248 9.25394 2.58554 9.437L6.56301 13.4145C6.65455 13.506 6.77448 13.5518 6.89448 13.5518ZM13.0817 2.25547C13.2647 2.07241 13.5615 2.07241 13.7446 2.25547C13.9277 2.43853 13.9277 2.73531 13.7446 2.91837L5.56864 11.0943L4.90573 10.4314L13.0817 2.25547Z" fill="#959595"/>
<path d="M2.9341 15.4966L5.12667 13.304L2.69601 10.8733L0.503414 13.0659C-0.167805 13.7371 -0.167805 14.8254 0.503414 15.4966C1.17463 16.1678 2.26288 16.1678 2.9341 15.4966Z" fill="#959595"/>
<path d="M0.172031 4.71759L3.87788 7.74744L5.32028 5.98319L2.25547 2.91838C2.07241 2.73534 2.07241 2.43853 2.25547 2.25547C2.43853 2.07241 2.73531 2.07241 2.91838 2.25547L5.91669 5.25378L7.39453 3.44622L4.71759 0.172031C4.62856 0.0631563 4.49534 0 4.35469 0H0.46875C0.209875 0 0 0.209875 0 0.46875V4.35472C0 4.49538 0.0631563 4.62856 0.172031 4.71759Z" fill="#959595"/>
<path d="M12.7515 8.77414L12.2007 9.32489L11.9896 9.06667L10.7461 10.0833L11.0942 10.4314L10.4313 11.0943L10.0167 10.6797L8.74044 11.7231L9.32475 12.2008L8.774 12.7516C8.59097 12.9346 8.59094 13.2314 8.774 13.4145C8.95707 13.5975 9.25385 13.5975 9.43691 13.4145L13.4144 9.43701C13.5059 9.34548 13.5517 9.22554 13.5517 9.10557C13.5517 8.98564 13.5059 8.86564 13.4144 8.77414C13.2313 8.59108 12.9345 8.59108 12.7515 8.77414Z" fill="#959595"/>
</g>
<defs>
<clipPath id="clip0_39_1695">
<rect width="16" height="16" fill="white"/>
</clipPath>
</defs>
</svg>
